<svg width="841" height="247" viewBox="0 0 841 247" fill="none" xmlns="http://www.w3.org/2000/svg">
<path d="M276.936 158H287.428V118.683C287.428 109.939 293.459 103.366 301.78 103.366C309.559 103.366 314.625 108.371 314.625 115.969V158H325.118V118.14C325.118 109.577 330.967 103.366 339.289 103.366C347.55 103.366 352.314 108.491 352.314 117.115V158H362.807V114.703C362.807 102.22 354.786 94.0791 342.364 94.0791C333.56 94.0791 326.203 98.6018 322.705 106.14H322.464C319.751 98.4812 313.419 94.0791 304.856 94.0791C296.775 94.0791 290.504 98.24 287.67 104.451H287.428V95.2852H276.936V158ZM402.184 159.206C419.491 159.206 431.19 146.663 431.19 126.643V126.522C431.19 106.501 419.431 94.0791 402.124 94.0791C384.817 94.0791 373.119 106.562 373.119 126.522V126.643C373.119 146.603 384.757 159.206 402.184 159.206ZM402.245 149.919C391.149 149.919 383.852 141.417 383.852 126.643V126.522C383.852 111.868 391.209 103.366 402.124 103.366C413.22 103.366 420.456 111.808 420.456 126.522V126.643C420.456 141.356 413.28 149.919 402.245 149.919ZM441.803 158H452.296V121.095C452.296 110.421 458.748 103.366 468.638 103.366C478.286 103.366 483.05 108.974 483.05 119.165V158H493.543V117.296C493.543 103.004 485.583 94.0791 471.834 94.0791C462.306 94.0791 455.914 98.3606 452.537 104.21H452.296V95.2852H441.803V158ZM512.84 84.6719C516.518 84.6719 519.413 81.717 519.413 78.0989C519.413 74.4204 516.518 71.5259 512.84 71.5259C509.222 71.5259 506.267 74.4204 506.267 78.0989C506.267 81.717 509.222 84.6719 512.84 84.6719ZM507.594 158H518.086V95.2852H507.594V158ZM552.76 159.206C554.811 159.206 557.042 158.965 558.369 158.784V150.281C557.464 150.342 556.258 150.522 554.992 150.522C549.383 150.522 546.429 148.653 546.429 141.959V103.969H558.369V95.2852H546.429V78.3401H535.574V95.2852H526.408V103.969H535.574V142.02C535.574 154.02 541.243 159.206 552.76 159.206ZM593.827 159.206C611.133 159.206 622.832 146.663 622.832 126.643V126.522C622.832 106.501 611.073 94.0791 593.766 94.0791C576.459 94.0791 564.761 106.562 564.761 126.522V126.643C564.761 146.603 576.399 159.206 593.827 159.206ZM593.887 149.919C582.791 149.919 575.495 141.417 575.495 126.643V126.522C575.495 111.868 582.851 103.366 593.766 103.366C604.862 103.366 612.098 111.808 612.098 126.522V126.643C612.098 141.356 604.922 149.919 593.887 149.919ZM633.445 158H643.938V119.286C643.938 109.758 649.245 104.089 657.386 104.089C659.918 104.089 662.15 104.391 662.994 104.692V94.5012C662.15 94.3806 660.582 94.0791 658.773 94.0791C651.717 94.0791 646.29 98.6621 644.179 105.898H643.938V95.2852H633.445V158ZM694.351 159.206C708.04 159.206 718.291 151.005 720.342 140.633L720.462 140.03H710.151L709.97 140.573C708.161 145.939 702.552 149.919 694.592 149.919C683.436 149.919 676.321 142.382 676.079 129.477H721.246V125.617C721.246 106.803 710.814 94.0791 693.688 94.0791C676.562 94.0791 665.466 107.406 665.466 126.823V126.884C665.466 146.603 676.321 159.206 694.351 159.206ZM693.628 103.366C702.794 103.366 709.547 109.094 710.573 121.276H676.26C677.406 109.577 684.522 103.366 693.628 103.366Z" fill="#130F26"/>
<path d="M750.011 159.025C758.513 159.025 765.388 154.985 769.066 148.352H769.428V158H787.036V113.677C787.036 100.652 776.242 92.0288 759.538 92.0288C742.473 92.0288 732.221 100.592 731.256 112.532L731.196 113.255H747.297L747.418 112.713C748.262 108.552 752.242 105.476 758.815 105.476C765.689 105.476 769.428 109.034 769.428 114.763V118.743L753.448 119.708C737.407 120.733 728.302 127.607 728.302 139.366V139.487C728.302 150.884 737.046 159.025 750.011 159.025ZM745.729 138.583V138.462C745.729 133.879 749.287 130.984 756.101 130.562L769.428 129.718V134.361C769.428 141.115 763.639 146.181 755.739 146.181C749.649 146.181 745.729 143.346 745.729 138.583ZM798.434 158H816.042V121.818C816.042 112.411 821.108 107.225 829.791 107.225C832.324 107.225 834.736 107.587 836.183 108.19V92.6921C834.857 92.3303 833.047 92.0288 831.118 92.0288C823.58 92.0288 818.334 96.6721 816.404 104.632H816.042V93.3555H798.434V158Z" fill="url(#paint0_linear)"/>
<path fill-rule="evenodd" clip-rule="evenodd" d="M212.1 81.2961V165.183C212.1 196.264 193.2 218.186 163 218.186H76.4999C46.2999 218.186 27.4999 196.264 27.4999 165.183V81.2961C27.4999 50.2153 46.3999 28.3043 76.4999 28.3043H163C193.2 28.3043 212.1 50.2153 212.1 81.2961Z" stroke="#130F26" stroke-width="15.4375" stroke-linecap="round" stroke-linejoin="round"/>
<path d="M52.8131 145.497L68.0931 128.897C73.4031 123.102 82.2531 122.824 87.8931 128.279C88.0631 128.454 97.2631 138.077 97.2631 138.077C102.813 143.892 111.883 143.984 117.533 138.283C117.903 137.912 140.873 109.239 140.873 109.239C146.793 101.84 157.423 100.78 164.623 106.883C165.103 107.294 186.803 130.214 186.803 130.214" stroke="url(#paint1_linear)" stroke-width="15.4375" stroke-linecap="round" stroke-linejoin="round"/>
<defs>
<linearGradient id="paint0_linear" x1="555.304" y1="41" x2="555.304" y2="185" gradientUnits="userSpaceOnUse">
<stop stop-color="#FF03F5"/>
<stop offset="1" stop-color="#9C009F"/>
</linearGradient>
<linearGradient id="paint1_linear" x1="119.808" y1="102.917" x2="119.808" y2="145.497" gradientUnits="userSpaceOnUse">
<stop stop-color="#EC03E5"/>
<stop offset="1" stop-color="#91008C"/>
</linearGradient>
</defs>
</svg>
