<svg width="929" height="234" viewBox="0 0 929 234" fill="none" xmlns="http://www.w3.org/2000/svg">
<mask id="mask0" mask-type="alpha" maskUnits="userSpaceOnUse" x="0" y="0" width="234" height="234">
<path d="M0 104C0 67.5966 0 49.3949 7.08458 35.4906C13.3163 23.2601 23.2601 13.3163 35.4906 7.08458C49.3949 0 67.5966 0 104 0H130C166.403 0 184.605 0 198.509 7.08458C210.74 13.3163 220.684 23.2601 226.915 35.4906C234 49.3949 234 67.5966 234 104V130C234 166.403 234 184.605 226.915 198.509C220.684 210.74 210.74 220.684 198.509 226.915C184.605 234 166.403 234 130 234H104C67.5966 234 49.3949 234 35.4906 226.915C23.2601 220.684 13.3163 210.74 7.08458 198.509C0 184.605 0 166.403 0 130V104Z" fill="url(#paint0_linear)"/>
</mask>
<g mask="url(#mask0)">
<path d="M0 104C0 67.5966 0 49.3949 7.08458 35.4906C13.3163 23.2601 23.2601 13.3163 35.4906 7.08458C49.3949 0 67.5966 0 104 0H130C166.403 0 184.605 0 198.509 7.08458C210.74 13.3163 220.684 23.2601 226.915 35.4906C234 49.3949 234 67.5966 234 104V130C234 166.403 234 184.605 226.915 198.509C220.684 210.74 210.74 220.684 198.509 226.915C184.605 234 166.403 234 130 234H104C67.5966 234 49.3949 234 35.4906 226.915C23.2601 220.684 13.3163 210.74 7.08458 198.509C0 184.605 0 166.403 0 130V104Z" fill="url(#paint1_linear)"/>
<g filter="url(#filter0_d)">
<path fill-rule="evenodd" clip-rule="evenodd" d="M178.936 89.8919V144.419C178.936 164.621 166.293 178.87 146.09 178.87H88.2253C68.0228 178.87 55.4464 164.621 55.4464 144.419V89.8919C55.4464 69.6894 68.0897 55.4473 88.2253 55.4473H146.09C166.293 55.4473 178.936 69.6894 178.936 89.8919Z" stroke="url(#paint2_linear)" stroke-width="10.0344" stroke-linecap="round" stroke-linejoin="round"/>
<path d="M72.3798 131.623L82.6014 120.832C86.1536 117.066 92.0739 116.885 95.8468 120.431C95.9605 120.545 102.115 126.799 102.115 126.799C105.828 130.579 111.895 130.639 115.675 126.933C115.922 126.692 131.288 108.055 131.288 108.055C135.248 103.245 142.359 102.556 147.176 106.523C147.497 106.791 162.013 121.688 162.013 121.688" stroke="url(#paint3_linear)" stroke-width="10.0344" stroke-linecap="round" stroke-linejoin="round"/>
</g>
</g>
<path d="M308.067 157H319.653V113.587C319.653 103.932 326.311 96.6746 335.5 96.6746C344.089 96.6746 349.682 102.201 349.682 110.591V157H361.268V112.988C361.268 103.533 367.727 96.6746 376.915 96.6746C386.037 96.6746 391.297 102.334 391.297 111.856V157H402.883V109.192C402.883 95.4095 394.027 86.4207 380.311 86.4207C370.59 86.4207 362.466 91.4145 358.605 99.7375H358.338C355.342 91.2813 348.351 86.4207 338.896 86.4207C329.973 86.4207 323.049 91.015 319.919 97.8732H319.653V87.7524H308.067V157ZM446.363 158.332C465.472 158.332 478.39 144.482 478.39 122.376V122.243C478.39 100.137 465.406 86.4207 446.296 86.4207C427.186 86.4207 414.269 100.204 414.269 122.243V122.376C414.269 144.416 427.12 158.332 446.363 158.332ZM446.429 148.078C434.178 148.078 426.121 138.689 426.121 122.376V122.243C426.121 106.063 434.244 96.6746 446.296 96.6746C458.548 96.6746 466.538 105.996 466.538 122.243V122.376C466.538 138.623 458.614 148.078 446.429 148.078ZM490.109 157H501.694V116.25C501.694 104.465 508.819 96.6746 519.739 96.6746C530.392 96.6746 535.652 102.867 535.652 114.12V157H547.238V112.056C547.238 96.2751 538.449 86.4207 523.267 86.4207C512.747 86.4207 505.689 91.1482 501.961 97.6068H501.694V87.7524H490.109V157ZM568.545 76.0335C572.606 76.0335 575.802 72.7709 575.802 68.7758C575.802 64.7142 572.606 61.5182 568.545 61.5182C564.55 61.5182 561.287 64.7142 561.287 68.7758C561.287 72.7709 564.55 76.0335 568.545 76.0335ZM562.752 157H574.338V87.7524H562.752V157ZM612.624 158.332C614.887 158.332 617.351 158.065 618.816 157.866V148.477C617.817 148.544 616.485 148.744 615.087 148.744C608.895 148.744 605.632 146.679 605.632 139.289V97.3405H618.816V87.7524H605.632V69.0422H593.647V87.7524H583.526V97.3405H593.647V139.355C593.647 152.605 599.906 158.332 612.624 158.332ZM657.967 158.332C677.077 158.332 689.995 144.482 689.995 122.376V122.243C689.995 100.137 677.011 86.4207 657.901 86.4207C638.791 86.4207 625.874 100.204 625.874 122.243V122.376C625.874 144.416 638.725 158.332 657.967 158.332ZM658.034 148.078C645.783 148.078 637.726 138.689 637.726 122.376V122.243C637.726 106.063 645.849 96.6746 657.901 96.6746C670.152 96.6746 678.143 105.996 678.143 122.243V122.376C678.143 138.623 670.219 148.078 658.034 148.078ZM701.713 157H713.299V114.253C713.299 103.733 719.158 97.4737 728.147 97.4737C730.944 97.4737 733.407 97.8066 734.34 98.1395V86.8868C733.407 86.7536 731.676 86.4207 729.679 86.4207C721.888 86.4207 715.896 91.4811 713.565 99.4712H713.299V87.7524H701.713V157ZM768.963 158.332C784.078 158.332 795.397 149.276 797.661 137.824L797.794 137.158H786.409L786.209 137.757C784.211 143.683 778.019 148.078 769.23 148.078C756.912 148.078 749.055 139.755 748.788 125.506H798.66V121.244C798.66 100.47 787.141 86.4207 768.231 86.4207C749.321 86.4207 737.07 101.136 737.07 122.576V122.643C737.07 144.416 749.055 158.332 768.963 158.332ZM768.164 96.6746C778.285 96.6746 785.743 103 786.875 116.45H748.988C750.253 103.533 758.11 96.6746 768.164 96.6746Z" fill="#130F26"/>
<path d="M830.421 158.132C839.809 158.132 847.4 153.671 851.461 146.347H851.861V157H871.303V108.061C871.303 93.6784 859.385 84.1568 840.941 84.1568C822.098 84.1568 810.778 93.6118 809.713 106.795L809.646 107.594H827.424L827.558 106.995C828.49 102.401 832.884 99.0051 840.142 99.0051C847.733 99.0051 851.861 102.934 851.861 109.259V113.654L834.216 114.719C816.505 115.851 806.45 123.442 806.45 136.425V136.559C806.45 149.143 816.105 158.132 830.421 158.132ZM825.693 135.56V135.427C825.693 130.366 829.622 127.17 837.146 126.704L851.861 125.772V130.899C851.861 138.356 845.469 143.949 836.746 143.949C830.021 143.949 825.693 140.82 825.693 135.56ZM883.888 157H903.331V117.049C903.331 106.662 908.924 100.936 918.512 100.936C921.308 100.936 923.972 101.336 925.57 102.001V84.8892C924.105 84.4897 922.107 84.1568 919.977 84.1568C911.654 84.1568 905.861 89.2838 903.73 98.0729H903.331V85.6217H883.888V157Z" fill="url(#paint4_linear)"/>
<defs>
<filter id="filter0_d" x="20.8" y="35.0998" width="193.05" height="193.05" filterUnits="userSpaceOnUse" color-interpolation-filters="sRGB">
<feFlood flood-opacity="0" result="BackgroundImageFix"/>
<feColorMatrix in="SourceAlpha" type="matrix" values="0 0 0 0 0 0 0 0 0 0 0 0 0 0 0 0 0 0 127 0"/>
<feOffset dy="14.3"/>
<feGaussianBlur stdDeviation="8.125"/>
<feColorMatrix type="matrix" values="0 0 0 0 0 0 0 0 0 0 0 0 0 0 0 0 0 0 0.26 0"/>
<feBlend mode="normal" in2="BackgroundImageFix" result="effect1_dropShadow"/>
<feBlend mode="normal" in="SourceGraphic" in2="effect1_dropShadow" result="shape"/>
</filter>
<linearGradient id="paint0_linear" x1="204.425" y1="14.3" x2="201.5" y2="219.375" gradientUnits="userSpaceOnUse">
<stop stop-color="#8DBBFF"/>
<stop offset="1" stop-color="#358DDD"/>
</linearGradient>
<linearGradient id="paint1_linear" x1="204.425" y1="14.3" x2="201.5" y2="219.375" gradientUnits="userSpaceOnUse">
<stop stop-color="#EC03E5"/>
<stop offset="1" stop-color="#91008C"/>
</linearGradient>
<linearGradient id="paint2_linear" x1="117.191" y1="55.4473" x2="117.191" y2="178.87" gradientUnits="userSpaceOnUse">
<stop stop-color="white"/>
<stop offset="1" stop-color="#929292"/>
</linearGradient>
<linearGradient id="paint3_linear" x1="117.197" y1="103.945" x2="117.197" y2="131.623" gradientUnits="userSpaceOnUse">
<stop stop-color="white"/>
<stop offset="1" stop-color="#929292"/>
</linearGradient>
<linearGradient id="paint4_linear" x1="613.889" y1="29" x2="613.889" y2="188" gradientUnits="userSpaceOnUse">
<stop stop-color="#FF03F5"/>
<stop offset="1" stop-color="#9C009F"/>
</linearGradient>
</defs>
</svg>
